# xmcd
#
# Track frame offsets:
#	150
#	16340
#	35877
#	48997
#	64400
#	82120
#	103917
#	122100
#	142057
#	158135
#	176022
#	194707
#	211327
#	230697
#	244802
#
# Disc length: 3517 seconds
#
# Revision: 1
# Processed by: cddbd v1.4PL0 Copyright (c) Steve Scherf et al.
# Submitted via: audiograbber 1.80.04
#
DISCID=e80dbb0f
DTITLE=Compilation - Blues Story #23
DYEAR=1998
DGENRE=Blues
TTITLE0=John Hammond - Fore Day Rider Blues
TTITLE1=Roy Rogers - Vida's Place
TTITLE2=Skip James - Vicksburg Blues
TTITLE3=Mississipi John Hurt - C.C. Rider
TTITLE4=Charlie Musselwhite - Both Sides Of The Fence
TTITLE5=Duke Robillard - Judgement Day
TTITLE6=Walter "Wolfman" Washington - Ain't No Love In The Heart Of The City
TTITLE7=Larry McCray - Delta Hurricane
TTITLE8=Rainer and Das Combo - It's A Matter Of Taste
TTITLE9=Dr John - Mac's Boogie
TTITLE10=Terell - Red Neck Gigolo
TTITLE11=Colin James - Keep On Loving Me Baby
TTITLE12=Zakiya Hooker - Protect Me From The Blues
TTITLE13=Bill Perry - Gettin' Down
TTITLE14=Steve Johnson - Happy Song
EXTD=
EXTT0=
EXTT1=
EXTT2=
EXTT3=
EXTT4=
EXTT5=
EXTT6=
EXTT7=
EXTT8=
EXTT9=
EXTT10=
EXTT11=
EXTT12=
EXTT13=
EXTT14=
PLAYORDER=
